<mxfile host="app.diagrams.net" modified="2022-05-15T15:48:58.411Z" agent="5.0 (Windows NT 10.0; Win64; x64) AppleWebKit/537.36 (KHTML, like Gecko) Chrome/101.0.4951.54 Safari/537.36" etag="lpRmk3wHnKWdPedWXxN4" version="18.0.2" type="github">
  <diagram id="kgpKYQtTHZ0yAKxKKP6v" name="Page-1">
    <mxGraphModel dx="782" dy="468" grid="1" gridSize="10" guides="1" tooltips="1" connect="1" arrows="1" fold="1" page="1" pageScale="1" pageWidth="850" pageHeight="1100" math="0" shadow="0">
      <root>
        <mxCell id="0" />
        <mxCell id="1" parent="0" />
        <mxCell id="v9KAxq6xR9OopSHGzDlh-16" value="" style="edgeStyle=orthogonalEdgeStyle;rounded=0;orthogonalLoop=1;jettySize=auto;html=1;strokeWidth=2;" edge="1" parent="1" source="v9KAxq6xR9OopSHGzDlh-1" target="v9KAxq6xR9OopSHGzDlh-2">
          <mxGeometry relative="1" as="geometry" />
        </mxCell>
        <mxCell id="v9KAxq6xR9OopSHGzDlh-19" value="" style="edgeStyle=orthogonalEdgeStyle;rounded=0;orthogonalLoop=1;jettySize=auto;html=1;entryX=0.5;entryY=0;entryDx=0;entryDy=0;strokeColor=#330033;strokeWidth=2;" edge="1" parent="1" source="v9KAxq6xR9OopSHGzDlh-1" target="v9KAxq6xR9OopSHGzDlh-7">
          <mxGeometry relative="1" as="geometry">
            <mxPoint x="140" y="70" as="targetPoint" />
          </mxGeometry>
        </mxCell>
        <mxCell id="v9KAxq6xR9OopSHGzDlh-33" value="" style="edgeStyle=orthogonalEdgeStyle;rounded=0;orthogonalLoop=1;jettySize=auto;html=1;fontFamily=Helvetica;fontSize=13;fontColor=#FFFFFF;strokeColor=#330033;strokeWidth=2;" edge="1" parent="1" source="v9KAxq6xR9OopSHGzDlh-1" target="v9KAxq6xR9OopSHGzDlh-2">
          <mxGeometry relative="1" as="geometry" />
        </mxCell>
        <mxCell id="v9KAxq6xR9OopSHGzDlh-1" value="&lt;font style=&quot;font-size: 13px;&quot;&gt;User / Client&lt;br&gt;&lt;/font&gt;(&lt;font style=&quot;font-size: 13px;&quot;&gt;Browser&lt;/font&gt;)" style="rounded=0;whiteSpace=wrap;html=1;gradientColor=none;fillColor=#690069;fontColor=#FFFFFF;fontFamily=Helvetica;" vertex="1" parent="1">
          <mxGeometry x="280" y="40" width="200" height="60" as="geometry" />
        </mxCell>
        <mxCell id="v9KAxq6xR9OopSHGzDlh-14" value="" style="edgeStyle=orthogonalEdgeStyle;rounded=0;orthogonalLoop=1;jettySize=auto;html=1;strokeWidth=2;" edge="1" parent="1" source="v9KAxq6xR9OopSHGzDlh-2" target="v9KAxq6xR9OopSHGzDlh-3">
          <mxGeometry relative="1" as="geometry" />
        </mxCell>
        <mxCell id="v9KAxq6xR9OopSHGzDlh-2" value="&lt;font style=&quot;font-size: 13px;&quot;&gt;http://abcd.com&lt;/font&gt;" style="rounded=0;whiteSpace=wrap;html=1;fillColor=#4D4D4D;fontColor=#FFFFFF;" vertex="1" parent="1">
          <mxGeometry x="260" y="160" width="240" height="40" as="geometry" />
        </mxCell>
        <mxCell id="v9KAxq6xR9OopSHGzDlh-17" value="" style="edgeStyle=orthogonalEdgeStyle;rounded=0;orthogonalLoop=1;jettySize=auto;html=1;" edge="1" parent="1" source="v9KAxq6xR9OopSHGzDlh-3" target="v9KAxq6xR9OopSHGzDlh-7">
          <mxGeometry relative="1" as="geometry" />
        </mxCell>
        <mxCell id="v9KAxq6xR9OopSHGzDlh-3" value="&lt;font style=&quot;font-size: 13px;&quot; color=&quot;#ffffff&quot;&gt;Domain Lookup&lt;/font&gt;" style="rounded=0;whiteSpace=wrap;html=1;fillColor=#B3B3B3;" vertex="1" parent="1">
          <mxGeometry x="300" y="240" width="160" height="40" as="geometry" />
        </mxCell>
        <mxCell id="v9KAxq6xR9OopSHGzDlh-22" value="" style="edgeStyle=orthogonalEdgeStyle;rounded=0;orthogonalLoop=1;jettySize=auto;html=1;entryX=0;entryY=0.75;entryDx=0;entryDy=0;strokeColor=#330033;strokeWidth=2;" edge="1" parent="1" source="v9KAxq6xR9OopSHGzDlh-7" target="v9KAxq6xR9OopSHGzDlh-9">
          <mxGeometry relative="1" as="geometry">
            <mxPoint x="120" y="350" as="targetPoint" />
            <Array as="points">
              <mxPoint x="120" y="350" />
            </Array>
          </mxGeometry>
        </mxCell>
        <mxCell id="v9KAxq6xR9OopSHGzDlh-7" value="&lt;font style=&quot;font-size: 13px;&quot;&gt;Request&lt;/font&gt;" style="rounded=0;whiteSpace=wrap;html=1;fillColor=#660066;fontColor=#FFFFFF;" vertex="1" parent="1">
          <mxGeometry x="40" y="240" width="160" height="40" as="geometry" />
        </mxCell>
        <mxCell id="v9KAxq6xR9OopSHGzDlh-26" style="edgeStyle=orthogonalEdgeStyle;rounded=0;orthogonalLoop=1;jettySize=auto;html=1;entryX=1;entryY=0.5;entryDx=0;entryDy=0;fillColor=#ffe6cc;strokeColor=#805C00;strokeWidth=2;" edge="1" parent="1" source="v9KAxq6xR9OopSHGzDlh-8" target="v9KAxq6xR9OopSHGzDlh-1">
          <mxGeometry relative="1" as="geometry">
            <Array as="points">
              <mxPoint x="640" y="70" />
            </Array>
          </mxGeometry>
        </mxCell>
        <mxCell id="v9KAxq6xR9OopSHGzDlh-8" value="&lt;font style=&quot;font-size: 12px;&quot; color=&quot;#ffffff&quot;&gt;Response(e.g.&amp;nbsp;HTML&amp;nbsp;page)&lt;/font&gt;" style="rounded=0;whiteSpace=wrap;html=1;fillColor=#FF9933;strokeColor=#d79b00;" vertex="1" parent="1">
          <mxGeometry x="560" y="240" width="160" height="40" as="geometry" />
        </mxCell>
        <mxCell id="v9KAxq6xR9OopSHGzDlh-11" value="" style="edgeStyle=orthogonalEdgeStyle;rounded=0;orthogonalLoop=1;jettySize=auto;html=1;strokeWidth=2;" edge="1" parent="1" source="v9KAxq6xR9OopSHGzDlh-9" target="v9KAxq6xR9OopSHGzDlh-10">
          <mxGeometry relative="1" as="geometry" />
        </mxCell>
        <mxCell id="v9KAxq6xR9OopSHGzDlh-23" style="edgeStyle=orthogonalEdgeStyle;rounded=0;orthogonalLoop=1;jettySize=auto;html=1;entryX=0.5;entryY=1;entryDx=0;entryDy=0;fillColor=#ffe6cc;strokeColor=#A37600;strokeWidth=2;" edge="1" parent="1" source="v9KAxq6xR9OopSHGzDlh-9" target="v9KAxq6xR9OopSHGzDlh-8">
          <mxGeometry relative="1" as="geometry" />
        </mxCell>
        <mxCell id="v9KAxq6xR9OopSHGzDlh-9" value="&lt;font style=&quot;font-size: 13px;&quot;&gt;Server&lt;br&gt;&lt;/font&gt;&lt;font style=&quot;font-size: 13px;&quot;&gt;(at 10.212.212.12)&lt;/font&gt;" style="rounded=0;whiteSpace=wrap;html=1;fillColor=#FF9933;fontColor=#FFFFFF;" vertex="1" parent="1">
          <mxGeometry x="280" y="320" width="200" height="40" as="geometry" />
        </mxCell>
        <mxCell id="v9KAxq6xR9OopSHGzDlh-10" value="&lt;font style=&quot;font-size: 13px;&quot; color=&quot;#ffffff&quot;&gt;&amp;lt;Your Code /&amp;gt;&lt;/font&gt;" style="rounded=0;whiteSpace=wrap;html=1;fillColor=#FFB570;strokeColor=#d79b00;" vertex="1" parent="1">
          <mxGeometry x="280" y="430" width="200" height="50" as="geometry" />
        </mxCell>
        <mxCell id="v9KAxq6xR9OopSHGzDlh-12" value="&lt;font color=&quot;#ff8000&quot; style=&quot;font-size: 13px;&quot;&gt;&lt;b&gt;Database&lt;/b&gt;&lt;/font&gt;" style="rounded=0;whiteSpace=wrap;html=1;fillColor=#fff2cc;strokeColor=#d6b656;fontColor=#FFFFFF;" vertex="1" parent="1">
          <mxGeometry x="560" y="430" width="160" height="50" as="geometry" />
        </mxCell>
        <mxCell id="v9KAxq6xR9OopSHGzDlh-13" value="&lt;b&gt;&lt;font style=&quot;font-size: 13px;&quot;&gt;NodeJS, APS.net, PHP, ...&lt;/font&gt;&lt;/b&gt;" style="rounded=0;whiteSpace=wrap;html=1;fillColor=#fff2cc;strokeColor=#d6b656;fontColor=#FF8000;" vertex="1" parent="1">
          <mxGeometry x="40" y="430" width="160" height="50" as="geometry" />
        </mxCell>
        <mxCell id="v9KAxq6xR9OopSHGzDlh-29" value="" style="endArrow=none;html=1;rounded=0;fillColor=#ffe6cc;strokeColor=#C78F00;strokeWidth=2;" edge="1" parent="1">
          <mxGeometry width="50" height="50" relative="1" as="geometry">
            <mxPoint x="200" y="460" as="sourcePoint" />
            <mxPoint x="280" y="460" as="targetPoint" />
          </mxGeometry>
        </mxCell>
        <mxCell id="v9KAxq6xR9OopSHGzDlh-30" value="" style="endArrow=classic;startArrow=classic;html=1;rounded=0;fillColor=#ffe6cc;strokeColor=#d79b00;strokeWidth=2;" edge="1" parent="1">
          <mxGeometry width="50" height="50" relative="1" as="geometry">
            <mxPoint x="480" y="460" as="sourcePoint" />
            <mxPoint x="560" y="460" as="targetPoint" />
            <Array as="points" />
          </mxGeometry>
        </mxCell>
      </root>
    </mxGraphModel>
  </diagram>
</mxfile>
